<svg xmlns="http://www.w3.org/2000/svg" width="32" height="32" fill="#25D366" viewBox="0 0 24 24">
  <path d="M12.04 2C6.53 2 2 6.53 2 12.04c0 2.12.64 4.1 1.74 5.74L2 22l4.39-1.73A10.02 10.02 0 0012.04 22c5.51 0 10.04-4.53 10.04-10.04S17.55 2 12.04 2zm0 18.19c-1.86 0-3.59-.54-5.05-1.47l-.36-.23-2.6.99.96-2.53-.23-.37a8.04 8.04 0 01-1.47-5.05c0-4.45 3.62-8.06 8.06-8.06s8.06 3.62 8.06 8.06-3.62 8.06-8.06 8.06zm4.37-6.18c-.24-.12-1.41-.69-1.63-.76-.22-.08-.38-.12-.53.12-.15.23-.61.76-.75.92-.14.15-.28.17-.52.06a6.62 6.62 0 01-1.95-1.2 7.2 7.2 0 01-1.33-1.64c-.14-.24-.01-.37.1-.49.1-.1.23-.26.35-.4.12-.14.16-.24.24-.4.08-.16.04-.3 0-.42-.06-.12-.52-1.27-.71-1.75-.19-.45-.38-.39-.53-.4h-.45c-.15 0-.4.06-.61.3-.21.23-.8.78-.8 1.91s.82 2.22.93 2.37c.12.15 1.62 2.48 3.94 3.48.55.24.98.38 1.31.48.55.18 1.05.15 1.44.09.44-.06 1.41-.57 1.61-1.12.2-.55.2-1.03.14-1.12-.06-.08-.22-.14-.46-.26z"/>
</svg>